#!OML:ASF F:\VICON\USERDATA\INSTALL\rory3\rory3.ASF
:FULLY-SPECIFIED
:DEGREES
562
root 0.456628 18.2019 0.835591 181.069 -25.4927 178.869
lowerback 12.8759 1.88032 1.3469
upperback 0.559472 2.64549 0.51213
thorax -6.59606 1.22295 -0.699105
lowerneck -22.1986 -4.59035 -12.7096
upperneck 29.4395 -5.57472 8.34249
head 14.464 -2.99984 4.4556
rclavicle -2.0773e-014 5.1684e-015
rhumerus -32.1265 -5.59518 -84.8351
rradius 28.919
rwrist 7.57992
rhand -15.9685 9.30552
rfingers 7.12502
rthumb 10.2306 -20.4257
lclavicle -2.0773e-014 5.1684e-015
lhumerus -34.3131 -0.390349 88.7535
lradius 42.4508
lwrist -2.6659
lhand -17.3835 24.514
lfingers 7.12502
lthumb 8.86524 54.3078
rfemur -7.25945 -10.0037 24.1651
rtibia 23.0824
rfoot -12.1237 -17.2131
rtoes 15.9151
lfemur -7.59465 -1.6717 -19.7848
ltibia 25.7541
lfoot -10.9935 9.6771
ltoes -2.01381
563
root 0.460164 18.2035 0.839501 181.101 -26.3691 178.9
lowerback 12.7879 1.92585 1.46683
upperback 0.59184 2.72209 0.52811
thorax -6.50608 1.25819 -0.759509
lowerneck -22.3209 -4.63415 -12.7877
upperneck 29.571 -5.61163 8.38298
head 14.5591 -3.01835 4.48408
rclavicle -2.0276e-014 1.51076e-014
rhumerus -32.1473 -5.43616 -84.7672
rradius 28.9695
rwrist 7.48478
rhand -15.8809 9.08482
rfingers 7.12502
rthumb 10.3151 -20.6422
lclavicle -2.0276e-014 1.51076e-014
lhumerus -34.2647 -0.318242 88.6659
lradius 42.4911
lwrist -2.85901
lhand -17.7542 24.1486
lfingers 7.12502
lthumb 8.5076 53.9572
rfemur -7.35911 -10.2808 24.2368
rtibia 23.1578
rfoot -12.0896 -17.7303
rtoes 16.2829
lfemur -7.53995 -1.23392 -19.5678
ltibia 25.9977
lfoot -11.0556 9.9864
ltoes -0.802734
564
root 0.46382 18.2108 0.846009 181.172 -27.2392 178.84
lowerback 12.7522 1.9702 1.44212
upperback 0.542065 2.78148 0.532163
thorax -6.53921 1.28899 -0.751938
lowerneck -22.1836 -4.60032 -12.5411
upperneck 29.6356 -5.59873 8.12924
head 14.5374 -3.02458 4.33879
rclavicle -2.41026e-014 -6.36111e-015
rhumerus -32.6334 -5.47559 -84.6336
rradius 29.2807
rwrist 7.62706
rhand -16.35 9.53125
rfingers 7.12502
rthumb 9.86254 -20.2178
lclavicle -2.41026e-014 -6.36111e-015
lhumerus -34.4501 -0.310611 88.59
lradius 42.6781
lwrist -2.68552
lhand -17.8143 23.8606
lfingers 7.12502
lthumb 8.44955 53.6715
rfemur -7.47141 -10.6747 24.2196
rtibia 23.2042
rfoot -11.8744 -18.1464
rtoes 16.8342
lfemur -7.51848 -0.669747 -19.441
ltibia 26.2449
lfoot -11.1884 10.2151
ltoes 1.76292
565
root 0.467991 18.2181 0.847499 181.271 -28.2171 178.663
lowerback 12.6951 1.98654 1.30744
upperback 0.532144 2.78329 0.501685
thorax -6.52266 1.29483 -0.706821
lowerneck -22.1104 -4.56793 -12.2951
upperneck 29.6878 -5.59275 7.93386
head 14.5272 -3.02271 4.21698
rclavicle 1.74434e-014 1.07344e-014
rhumerus -32.918 -5.5582 -84.5054
rradius 29.5332
rwrist 7.68686
rhand -16.603 9.79881
rfingers 7.12502
rthumb 9.61841 -19.9616
lclavicle 1.74434e-014 1.07344e-014
lhumerus -34.5854 -0.315772 88.4709
lradius 42.844
lwrist -2.5201
lhand -17.7639 23.9773
lfingers 7.12502
lthumb 8.49822 53.7863
rfemur -7.48687 -11.0967 24.0768
rtibia 23.2181
rfoot -11.7753 -18.5633
rtoes 17.3747
lfemur -7.47744 -0.0352205 -19.4112
ltibia 26.5116
lfoot -11.2426 10.423
ltoes 3.72596
566
root 0.471505 18.218 0.845214 181.313 -29.1715 178.453
lowerback 12.7271 2.02826 1.17247
upperback 0.540369 2.81839 0.473599
thorax -6.53634 1.31581 -0.66794
lowerneck -22.1004 -4.57853 -12.4178
upperneck 29.8041 -5.61756 8.05855
head 14.5895 -3.03482 4.29023
rclavicle -8.18993e-014 -3.97569e-015
rhumerus -32.9989 -5.48606 -84.3878
rradius 29.6202
rwrist 7.54071
rhand -16.5812 9.83434
rfingers 7.12502
rthumb 9.63944 -19.9251
lclavicle -8.18993e-014 -3.97569e-015
lhumerus -34.6756 -0.236885 88.3374
lradius 42.9191
lwrist -2.6273
lhand -17.7311 24.2595
lfingers 7.12502
lthumb 8.52983 54.0672
rfemur -7.3611 -11.4398 23.9076
rtibia 23.2399
rfoot -11.6621 -19.0831
rtoes 17.208
lfemur -7.33727 0.639429 -19.397
ltibia 26.7876
lfoot -11.3366 10.6584
ltoes 6.09992
567
root 0.473017 18.2147 0.841666 181.234 -29.9175 178.465
lowerback 12.7702 2.14262 1.2024
upperback 0.496691 2.97736 0.459633
thorax -6.60206 1.3924 -0.730933
lowerneck -21.8765 -4.53241 -12.3744
upperneck 29.8138 -5.61186 8.08421
head 14.5428 -3.0306 4.29572
rclavicle -6.61953e-014 -1.59028e-015
rhumerus -33.1663 -5.45951 -84.3065
rradius 29.624
rwrist 7.35788
rhand -16.3285 9.57258
rfingers 7.12502
rthumb 9.88327 -20.1754
lclavicle -6.61953e-014 -1.59028e-015
lhumerus -34.8642 -0.210028 88.1457
lradius 42.9324
lwrist -2.6763
lhand -17.7249 24.0957
lfingers 7.12502
lthumb 8.53579 53.9032
rfemur -7.22858 -11.5369 23.9693
rtibia 23.2604
rfoot -11.4215 -19.7009
rtoes 16.4706
lfemur -7.13687 1.40419 -19.163
ltibia 27.0809
lfoot -11.4511 10.9726
ltoes 9.13926
568
root 0.474576 18.2122 0.843072 181.199 -30.7001 178.532
lowerback 12.7427 2.23394 1.26875
upperback 0.436036 3.11228 0.458096
thorax -6.64516 1.45704 -0.794633
lowerneck -21.62 -4.45354 -12.2022
upperneck 29.7811 -5.57079 8.01158
head 14.4568 -3.00833 4.24304
rclavicle 1.24588e-013 -5.1684e-015
rhumerus -33.3418 -5.70661 -84.1511
rradius 29.6625
rwrist 7.37989
rhand -15.8188 9.11786
rfingers 7.12502
rthumb 10.3749 -20.6062
lclavicle 1.24588e-013 -5.1684e-015
lhumerus -35.0511 -0.160225 87.8985
lradius 42.8803
lwrist -2.68885
lhand -17.7045 23.4269
lfingers 7.12502
lthumb 8.55553 53.2336
rfemur -7.21482 -11.7199 24.079
rtibia 23.2802
rfoot -11.3908 -20.2375
rtoes 16.8565
lfemur -7.03256 2.30057 -18.9091
ltibia 27.3555
lfoot -11.2437 11.3705
ltoes 9.27881
569
root 0.477763 18.2105 0.84874 181.276 -31.7282 178.459
lowerback 12.6587 2.21692 1.23615
upperback 0.465674 3.08402 0.467741
thorax -6.56936 1.44567 -0.756727
lowerneck -21.6972 -4.41148 -12.1354
upperneck 29.7999 -5.49655 7.97175
head 14.4682 -2.96853 4.2306
rclavicle 9.18882e-014 -7.95139e-015
rhumerus -33.317 -5.98213 -83.963
rradius 29.6773
rwrist 7.61065
rhand -15.7638 8.99402
rfingers 7.12502
rthumb 10.428 -20.7274
lclavicle 9.18882e-014 -7.95139e-015
lhumerus -35.0579 0.101763 87.6165
lradius 42.8702
lwrist -2.68142
lhand -17.4114 23.142
lfingers 7.12502
lthumb 8.83834 52.9369
rfemur -7.23481 -12.141 24.05
rtibia 23.2702
rfoot -11.4523 -20.7723
rtoes 17.5103
lfemur -7.03853 3.22138 -18.8101
ltibia 27.5856
lfoot -10.7948 11.7441
ltoes 7.0254
570
root 0.480255 18.2105 0.849017 181.354 -32.7922 178.276
lowerback 12.5581 2.2074 1.06066
upperback 0.55855 3.0416 0.472638
thorax -6.42457 1.4316 -0.638804
lowerneck -21.8067 -4.42027 -12.0188
upperneck 29.8119 -5.50305 7.90772
head 14.492 -2.95918 4.18342
rclavicle 1.50082e-014 -1.23246e-014
rhumerus -33.1862 -6.105 -83.8121
rradius 29.5531
rwrist 7.77371
rhand -15.966 9.08139
rfingers 7.12502
rthumb 10.233 -20.6497
lclavicle 1.50082e-014 -1.23246e-014
lhumerus -34.9663 0.50778 87.3578
lradius 42.83
lwrist -2.95842
lhand -17.1695 22.9584
lfingers 7.12502
lthumb 9.07181 52.7433
rfemur -7.12989 -12.4025 23.9202
rtibia 23.2128
rfoot -11.5255 -21.488
rtoes 17.8732
lfemur -6.97031 4.16285 -18.7801
ltibia 27.7838
lfoot -10.4556 12.0137
ltoes 5.63755
571
root 0.481204 18.2138 0.842266 181.401 -33.8038 178.145
lowerback 12.4854 2.23048 0.856259
upperback 0.560261 3.04561 0.498446
thorax -6.39423 1.44112 -0.494675
lowerneck -21.6937 -4.3982 -11.8445
upperneck 29.8254 -5.51799 7.80782
head 14.465 -2.96108 4.10937
rclavicle -6.9674e-014 2.5842e-014
rhumerus -33.2119 -5.9338 -83.733
rradius 29.4002
rwrist 7.73339
rhand -15.876 8.95878
rfingers 7.12502
rthumb 10.3197 -20.768
lclavicle -6.9674e-014 2.5842e-014
lhumerus -35.1946 0.701087 87.2001
lradius 43.0414
lwrist -3.22849
lhand -17.0332 23.1227
lfingers 7.12502
lthumb 9.20335 52.9019
rfemur -6.98608 -12.5409 23.853
rtibia 23.1383
rfoot -11.5836 -22.2708
rtoes 18.0877
lfemur -6.84047 5.02078 -18.6721
ltibia 27.9348
lfoot -10.3354 12.2125
ltoes 5.83234
572
root 0.483143 18.216 0.833089 181.338 -34.753 178.231
lowerback 12.4658 2.27481 0.894504
upperback 0.514552 3.11367 0.507762
thorax -6.42953 1.47415 -0.518803
lowerneck -21.5665 -4.37972 -11.6984
upperneck 29.829 -5.53742 7.73805
head 14.4332 -2.96394 4.05191
rclavicle -6.80837e-014 4.37326e-015
rhumerus -33.3804 -5.81383 -83.6978
rradius 29.3785
rwrist 7.6133
rhand -15.7337 8.75167
rfingers 7.12502
rthumb 10.4571 -20.9683
lclavicle -6.80837e-014 4.37326e-015
lhumerus -35.527 0.567975 87.0194
lradius 43.3585
lwrist -3.24902
lhand -16.9414 23.369
lfingers 7.12502
lthumb 9.29186 53.1442
rfemur -6.86291 -12.7796 23.9831
rtibia 23.0582
rfoot -11.6633 -22.8898
rtoes 18.5767
lfemur -6.66775 5.70874 -18.3684
ltibia 28.0436
lfoot -10.1216 12.4123
ltoes 7.50295
573
root 0.48187 18.2142 0.832897 181.302 -35.7349 178.314
lowerback 12.4265 2.27206 1.03421
upperback 0.514347 3.12883 0.487211
thorax -6.39877 1.47788 -0.619745
lowerneck -21.5948 -4.39381 -11.6998
upperneck 29.8099 -5.57469 7.83623
head 14.4394 -2.96174 4.08654
rclavicle -1.01629e-013 -1.39149e-014
rhumerus -33.476 -5.64012 -83.6803
rradius 29.4121
rwrist 7.40866
rhand -15.8887 8.80225
rfingers 7.12502
rthumb 10.3075 -20.9252
lclavicle -1.01629e-013 -1.39149e-014
lhumerus -35.5368 0.460281 86.7653
lradius 43.2916
lwrist -3.06092
lhand -16.4969 23.8163
lfingers 7.12502
lthumb 9.72077 53.572
rfemur -6.79283 -13.1319 24.0761
rtibia 22.9816
rfoot -11.795 -23.3858
rtoes 19.6178
lfemur -6.55579 6.20864 -18.129
ltibia 28.1431
lfoot -9.87432 12.7929
ltoes 9.0586
574
root 0.477359 18.2134 0.833842 181.303 -36.7754 178.317
lowerback 12.3452 2.24977 1.0691
upperback 0.532938 3.1051 0.51723
thorax -6.3337 1.46674 -0.599654
lowerneck -21.7029 -4.42234 -11.8583
upperneck 29.9008 -5.58531 7.9615
head 14.5157 -2.96526 4.16805
rclavicle 6.41578e-014 6.36111e-015
rhumerus -33.4757 -5.40904 -83.5643
rradius 29.3598
rwrist 7.23937
rhand -16.1429 8.95999
rfingers 7.12502
rthumb 10.0623 -20.7794
lclavicle 6.41578e-014 6.36111e-015
lhumerus -35.2563 0.701089 86.5476
lradius 42.7326
lwrist -3.15982
lhand -15.8979 24.1927
lfingers 7.12502
lthumb 10.2987 53.9205
rfemur -6.73903 -13.4549 24.0964
rtibia 22.9788
rfoot -11.9739 -23.9573
rtoes 20.4591
lfemur -6.4595 6.88529 -17.9786
ltibia 28.1963
lfoot -9.68286 13.3654
ltoes 7.18402
575
root 0.476684 18.2141 0.831802 181.274 -37.766 178.329
lowerback 12.3733 2.26857 1.16871
upperback 0.489349 3.14387 0.461242
thorax -6.38646 1.48224 -0.72352
lowerneck -21.6371 -4.46116 -11.871
upperneck 29.9322 -5.68951 8.07789
head 14.5339 -2.9973 4.2008
rclavicle -5.07895e-014 -1.31198e-014
rhumerus -33.5405 -5.48789 -83.5165
rradius 29.1891
rwrist 7.16949
rhand -16.4092 9.04479
rfingers 7.12502
rthumb 9.80538 -20.7069
lclavicle -5.07895e-014 -1.31198e-014
lhumerus -35.0235 1.15605 86.2061
lradius 42.1548
lwrist -3.45794
lhand -16.3823 23.7713
lfingers 7.12502
lthumb 9.83136 53.5218
rfemur -6.71674 -13.6416 24.1501
rtibia 23.0497
rfoot -12.1321 -24.6394
rtoes 21.2014
lfemur -6.31928 7.86535 -17.7716
ltibia 28.1602
lfoot -9.41189 13.7026
ltoes 5.20337
